<?xml version="1.0" encoding="utf-8"?>
<!-- Generator: Adobe Illustrator 26.0.2, SVG Export Plug-In . SVG Version: 6.00 Build 0)  -->
<svg version="1.1" id="Réteg_1" xmlns="http://www.w3.org/2000/svg" xmlns:xlink="http://www.w3.org/1999/xlink" x="0px" y="0px"
	 viewBox="0 0 502 1080" style="enable-background:new 0 0 502 1080;" xml:space="preserve">
<style type="text/css">
	.st0{fill:#CCCCCC;}
	.st1{fill:#F4F4F4;}
	.st2{fill:none;stroke:#000000;stroke-width:2;stroke-miterlimit:10;}
	.st3{fill:#A52B2B;stroke:#000000;stroke-miterlimit:10;}
	.st4{fill:#EAD018;stroke:#000000;stroke-miterlimit:10;}
	.st5{fill:#38A32C;stroke:#000000;stroke-miterlimit:10;}
	.st6{fill:#898989;}
	.st7{fill:none;stroke:#000000;stroke-width:3;stroke-linecap:round;stroke-miterlimit:10;}
</style>
<g>
	<g>
		<g>
			<path class="st0" d="M502,1080H0V19C0,8.51,8.51,0,19,0h464c10.49,0,19,8.51,19,19V1080z"/>
		</g>
		<path class="st1" d="M502,50H1V20.81C1,9.87,9.87,1,20.81,1H502V50z"/>
		<g>
			<line class="st2" x1="1.5" y1="50" x2="500.5" y2="50"/>
		</g>
		<g>
			<path d="M498,4v1072H4V19c0-8.27,6.73-15,15-15H498 M502,0H19C8.51,0,0,8.51,0,19v1061h502V0L502,0z"/>
		</g>
	</g>
	<circle class="st3" cx="477.59" cy="25.74" r="8.26"/>
	<circle class="st4" cx="454.74" cy="25.74" r="8.26"/>
	<circle class="st5" cx="432.74" cy="25.74" r="8.26"/>
</g>
<g>
	<path d="M31.41,26.62c0,1.64-0.27,3.06-0.81,4.28c-0.54,1.22-1.29,2.2-2.25,2.93l2.85,2.26l-2.64,2.23l-3.8-3.06
		c-0.36,0.05-0.71,0.07-1.07,0.07c-1.51,0-2.84-0.35-4.01-1.04c-1.17-0.7-2.08-1.69-2.73-2.99c-0.65-1.3-0.99-2.79-1.01-4.47V25.9
		c0-1.74,0.32-3.27,0.95-4.59c0.63-1.32,1.54-2.34,2.72-3.06c1.18-0.72,2.53-1.08,4.05-1.08c1.5,0,2.83,0.36,4.01,1.07
		c1.17,0.71,2.09,1.73,2.74,3.04c0.65,1.32,0.98,2.82,0.99,4.52V26.62z M27.07,25.88c0-1.76-0.29-3.09-0.88-4
		c-0.59-0.91-1.43-1.37-2.52-1.37c-1.13,0-1.97,0.45-2.54,1.35c-0.57,0.9-0.85,2.21-0.86,3.95v0.81c0,1.74,0.29,3.07,0.86,4
		c0.58,0.93,1.43,1.39,2.56,1.39c1.08,0,1.92-0.46,2.5-1.37c0.58-0.91,0.87-2.23,0.88-3.95V25.88z"/>
	<path d="M41.39,29.04h-7.3v-3.16h7.3V29.04z"/>
	<path d="M53.89,30.39c0-0.62-0.22-1.11-0.66-1.46s-1.22-0.71-2.33-1.08c-1.11-0.37-2.02-0.73-2.72-1.08
		c-2.29-1.12-3.44-2.67-3.44-4.64c0-0.98,0.29-1.84,0.86-2.59c0.57-0.75,1.38-1.33,2.42-1.75c1.04-0.42,2.22-0.63,3.52-0.63
		c1.27,0,2.41,0.23,3.42,0.68c1.01,0.45,1.79,1.1,2.35,1.94c0.56,0.84,0.84,1.8,0.84,2.87H53.9c0-0.72-0.22-1.28-0.66-1.68
		c-0.44-0.4-1.04-0.59-1.79-0.59c-0.76,0-1.36,0.17-1.8,0.5s-0.66,0.76-0.66,1.28c0,0.45,0.24,0.86,0.73,1.23
		c0.49,0.37,1.34,0.75,2.56,1.14c1.22,0.39,2.23,0.82,3.01,1.27c1.91,1.1,2.87,2.62,2.87,4.55c0,1.55-0.58,2.76-1.75,3.64
		c-1.17,0.88-2.76,1.32-4.8,1.32c-1.43,0-2.73-0.26-3.89-0.77c-1.16-0.51-2.04-1.22-2.62-2.11c-0.59-0.89-0.88-1.92-0.88-3.09h4.27
		c0,0.95,0.25,1.65,0.74,2.09c0.49,0.45,1.29,0.67,2.39,0.67c0.71,0,1.26-0.15,1.67-0.46C53.68,31.37,53.89,30.94,53.89,30.39z"/>
	<path d="M74.22,20.7h-5.31v14.39h-4.26V20.7h-5.21v-3.29h14.78V20.7z"/>
	<path d="M90.65,26.62c0,1.72-0.32,3.25-0.96,4.58c-0.64,1.33-1.55,2.35-2.73,3.07c-1.18,0.72-2.52,1.07-4.03,1.07
		c-1.51,0-2.84-0.35-4.01-1.04s-2.08-1.68-2.73-2.97c-0.65-1.29-0.99-2.76-1.03-4.43v-1c0-1.73,0.32-3.26,0.95-4.58
		s1.55-2.35,2.73-3.07c1.19-0.72,2.54-1.08,4.05-1.08c1.5,0,2.83,0.36,4.01,1.07c1.17,0.71,2.09,1.73,2.74,3.04
		c0.65,1.32,0.98,2.82,0.99,4.52V26.62z M86.31,25.88c0-1.76-0.29-3.09-0.88-4c-0.59-0.91-1.43-1.37-2.52-1.37
		c-2.14,0-3.27,1.6-3.39,4.81l-0.01,1.3c0,1.73,0.29,3.06,0.86,4c0.57,0.93,1.43,1.4,2.56,1.4c1.08,0,1.91-0.46,2.49-1.37
		c0.58-0.91,0.88-2.23,0.89-3.95V25.88z"/>
	<path d="M107.15,29.11c-0.06,1.23-0.39,2.32-1,3.26c-0.61,0.94-1.46,1.67-2.56,2.19c-1.1,0.52-2.35,0.78-3.76,0.78
		c-2.32,0-4.15-0.76-5.49-2.27c-1.34-1.51-2-3.65-2-6.41v-0.87c0-1.73,0.3-3.25,0.91-4.55c0.6-1.3,1.47-2.3,2.6-3.01
		s2.45-1.06,3.93-1.06c2.15,0,3.87,0.56,5.17,1.69s2.04,2.69,2.22,4.67h-4.25c-0.03-1.08-0.3-1.85-0.81-2.32
		c-0.51-0.47-1.29-0.7-2.33-0.7c-1.06,0-1.84,0.4-2.33,1.19c-0.49,0.79-0.75,2.06-0.78,3.8v1.25c0,1.89,0.24,3.23,0.71,4.04
		S98.68,32,99.84,32c0.98,0,1.73-0.23,2.25-0.69c0.52-0.46,0.79-1.19,0.83-2.2H107.15z"/>
	<path d="M115.18,28.51l-1.75,1.92v4.66h-4.26V17.41h4.26v7.8l1.48-2.25l3.81-5.55H124l-5.97,7.82l5.97,9.86h-5.05L115.18,28.51z"/>
</g>
<rect x="40" y="525" class="st6" width="424" height="476"/>
<rect x="40" y="367" class="st6" width="422" height="77.54"/>
<line class="st7" x1="40.46" y1="324.69" x2="464" y2="324.69"/>
<line class="st7" x1="39.48" y1="486.12" x2="463.02" y2="486.12"/>
</svg>
